<svg width="200" height="30" viewBox="0 0 200 30" fill="none" xmlns="http://www.w3.org/2000/svg">
<g clip-path="url(#clip0_113_2)">
<path fill-rule="evenodd" clip-rule="evenodd" d="M15.5718 6.41698C14.6302 6.94908 13.8206 7.6864 13.2029 8.57421C12.9289 7.71189 12.3643 6.97124 11.6055 6.47842C10.7269 5.96671 9.71989 5.71793 8.70411 5.76162C7.80926 5.7615 6.92881 5.98689 6.1441 6.41698C5.27758 6.91068 4.54967 7.61511 4.02783 8.46499V6.25997H-0.197876V22.5962H4.16437V12.7726C4.15881 12.3151 4.24952 11.8615 4.43061 11.4414C4.58974 11.051 4.82138 10.6943 5.11327 10.3901C5.41629 10.0701 5.78085 9.81471 6.18506 9.63917C6.56811 9.49092 6.97584 9.41679 7.38656 9.42072C7.66074 9.42185 7.93287 9.46797 8.19211 9.55725C8.44197 9.64487 8.66363 9.79814 8.83381 10.0009C9.03011 10.2536 9.1719 10.5441 9.25024 10.8543C9.36342 11.3234 9.41392 11.8055 9.40043 12.2879V22.5962H13.7627V12.5814C13.7624 12.1714 13.8509 11.7662 14.0221 11.3936C14.1928 11.0237 14.4235 10.6846 14.7048 10.3901C15.0103 10.0699 15.3771 9.81457 15.7834 9.63917C16.1641 9.49097 16.5696 9.41682 16.9781 9.42072C17.2446 9.41989 17.5096 9.46136 17.7631 9.5436C18.011 9.63139 18.2304 9.78474 18.398 9.98733C18.5992 10.2377 18.7436 10.5289 18.8213 10.8406C18.9422 11.3133 18.9996 11.8 18.9919 12.2879V22.5962H23.361V11.6735C23.361 9.58911 22.94 8.08269 22.0981 7.15426C21.6008 6.66914 21.0053 6.29625 20.3517 6.06073C19.6982 5.82521 19.0017 5.73253 18.3093 5.78893C17.3566 5.78752 16.4185 6.02206 15.5786 6.4716" fill="white"/>
<path fill-rule="evenodd" clip-rule="evenodd" d="M36.9734 6.26001L33.4507 16.9915L29.621 6.26001H24.576L31.3345 21.8794L30.8361 23.2448C30.6738 23.8123 30.3627 24.3261 29.935 24.733C29.5281 25.0301 29.032 25.1794 28.5287 25.1562C27.9084 25.1565 27.2909 25.0738 26.6924 24.9105L25.9755 28.16C26.5179 28.3413 27.0753 28.4738 27.6412 28.5559C28.1731 28.6265 28.7091 28.663 29.2456 28.6652C29.9935 28.6858 30.7388 28.5677 31.4438 28.317C32.0215 28.1004 32.5421 27.7549 32.966 27.3066C33.4412 26.7737 33.8346 26.1733 34.1334 25.5249C34.4679 24.8422 34.8162 24.0025 35.1916 23.0673L41.7383 6.26001H36.9734Z" fill="white"/>
<path fill-rule="evenodd" clip-rule="evenodd" d="M48.5308 0.327655C47.8647 0.540361 47.2523 0.8943 46.7354 1.36531C46.2054 1.85944 45.7966 2.46917 45.5407 3.14707C45.2314 3.97848 45.0831 4.86118 45.1038 5.74803V6.28051H42.5507V9.69385H45.1038V22.5963H49.4661V9.67337H53.2481V6.26003H49.4661V5.63198C49.4288 5.30912 49.4716 4.98206 49.5906 4.67965C49.7097 4.37724 49.9014 4.10879 50.1487 3.89801C50.5934 3.57679 51.1294 3.40688 51.6779 3.41331C52.3181 3.41821 52.9554 3.50074 53.5757 3.65907L54.1697 0.471015C53.5965 0.287582 53.0065 0.161803 52.4084 0.0955476C51.8643 0.0344761 51.3174 0.00257262 50.77 -2.58228e-05C50.0111 -0.00733816 49.2558 0.103205 48.5308 0.327655Z" fill="white"/>
<path fill-rule="evenodd" clip-rule="evenodd" d="M55.8217 4.19155H60.3068V0.252563H55.8217V4.19155Z" fill="white"/>
<path fill-rule="evenodd" clip-rule="evenodd" d="M55.8832 22.5962H60.2455V6.26001H55.8832V22.5962Z" fill="white"/>
<path fill-rule="evenodd" clip-rule="evenodd" d="M64.635 1.9115V6.26009H62.0818V9.67343H64.635V17.3057C64.635 19.3309 65.0674 20.7714 65.9321 21.627C66.7968 22.4826 68.1212 22.9104 69.9052 22.9104C70.4509 22.9094 70.9959 22.8729 71.5368 22.8012C72.1337 22.7209 72.7229 22.5907 73.2981 22.412L72.6768 19.183C72.387 19.269 72.09 19.3284 71.7894 19.3605C71.4822 19.3605 71.1886 19.4083 70.8951 19.4083C70.3996 19.4261 69.9145 19.2636 69.5297 18.9509C69.3238 18.7157 69.17 18.4397 69.0782 18.1408C68.9864 17.842 68.9589 17.5272 68.9973 17.2169V9.70756H72.7383V6.29422H68.9973V1.9115H64.635Z" fill="white"/>
<path fill-rule="evenodd" clip-rule="evenodd" d="M81.4764 6.41708C80.5409 6.89939 79.7514 7.62295 79.1894 8.51287V6.26007H74.9569V22.5963H79.3192V12.7728C79.3127 12.3123 79.4132 11.8566 79.6127 11.4416C79.795 11.0524 80.042 10.6969 80.3432 10.3902C80.6798 10.0884 81.0653 9.84596 81.4832 9.6734C81.9439 9.4935 82.436 9.40761 82.9305 9.42082C83.5731 9.39132 84.2013 9.61708 84.6781 10.0489C85.1082 10.4653 85.3608 11.2504 85.3608 12.3973V22.5963H89.723V11.7965C89.723 9.71209 89.2679 8.18519 88.3577 7.2158C87.4474 6.24641 86.0821 5.76172 84.2617 5.76172C83.3109 5.7749 82.3761 6.00859 81.531 6.44439" fill="white"/>
<path fill-rule="evenodd" clip-rule="evenodd" d="M97.0413 11.223C97.1936 10.8068 97.4254 10.4242 97.724 10.0966C98.0341 9.76433 98.411 9.50144 98.8299 9.32517C99.3158 9.13069 99.8358 9.03552 100.359 9.04528C100.829 9.00596 101.302 9.06923 101.745 9.23071C102.188 9.39219 102.591 9.64804 102.926 9.98053C103.522 10.7249 103.821 11.6637 103.765 12.6156H96.7546C96.7723 12.1476 96.8693 11.6859 97.0413 11.2503V11.223ZM97.1642 6.3624C96.1899 6.73252 95.3106 7.31561 94.5905 8.06907C93.8528 8.85462 93.2857 9.78434 92.9248 10.7997C92.5108 11.9791 92.3097 13.2227 92.3309 14.4725C92.3309 17.2305 93.0136 19.3581 94.3789 20.8554C95.7442 22.3527 97.774 23.106 100.468 23.1151C102.712 23.1151 104.421 22.6395 105.595 21.6883C106.831 20.6247 107.617 19.1313 107.793 17.5104H103.554C103.24 18.9713 102.223 19.7017 100.502 19.7017C99.9811 19.7402 99.4578 19.66 98.9719 19.4673C98.4859 19.2746 98.0499 18.9743 97.6967 18.589C97.024 17.7033 96.6725 16.6152 96.7 15.5033H107.978V13.742C107.978 11.2981 107.349 9.35703 106.093 7.91888C104.837 6.48073 102.962 5.76165 100.468 5.76165C99.3433 5.74809 98.2254 5.9425 97.171 6.33509" fill="white"/>
<path fill-rule="evenodd" clip-rule="evenodd" d="M114.251 6.14404C113.458 6.35628 112.706 6.70011 112.026 7.16121C111.436 7.57029 110.946 8.10695 110.592 8.73135C110.244 9.38664 110.068 10.1195 110.08 10.8613C110.028 11.5119 110.13 12.1656 110.378 12.7693C110.626 13.3731 111.013 13.9099 111.507 14.3361C112.822 15.2281 114.337 15.7816 115.917 15.9472L118.163 16.3226C118.758 16.3688 119.321 16.6086 119.767 17.0053C120.04 17.303 120.189 17.6937 120.184 18.0976C120.2 18.3518 120.144 18.6055 120.024 18.8299C119.903 19.0543 119.722 19.2405 119.501 19.3673C118.802 19.677 118.038 19.8106 117.275 19.7565C116.504 19.7777 115.737 19.6286 115.03 19.3196C114.694 19.1301 114.412 18.8584 114.21 18.53C114.008 18.2016 113.893 17.8273 113.876 17.4422H109.705C109.73 18.4016 109.993 19.3398 110.469 20.1729C110.897 20.8809 111.483 21.4793 112.183 21.9205C112.909 22.3702 113.712 22.6826 114.552 22.8421C115.469 23.0255 116.402 23.117 117.337 23.1152C119.767 23.1152 121.563 22.6441 122.73 21.7499C123.292 21.3112 123.742 20.7464 124.044 20.1011C124.347 19.4559 124.493 18.7484 124.471 18.0361C124.483 17.3441 124.394 16.654 124.205 15.9881C124.031 15.4099 123.708 14.8874 123.269 14.4726C122.765 13.9898 122.168 13.6137 121.515 13.3667C120.598 13.0296 119.648 12.7871 118.682 12.6431L116.634 12.3017C115.971 12.225 115.33 12.016 114.75 11.6873C114.586 11.5483 114.457 11.3726 114.374 11.1745C114.291 10.9764 114.256 10.7615 114.272 10.5473C114.275 10.3616 114.322 10.1792 114.408 10.0148C114.52 9.81128 114.682 9.63975 114.879 9.51641C115.156 9.34435 115.461 9.22191 115.78 9.1546C116.255 9.04968 116.741 9.00156 117.228 9.01124C118.013 8.95496 118.796 9.14594 119.467 9.55737C119.976 9.98026 120.324 10.5664 120.45 11.2163L124.341 10.7179C124.224 10.048 124.019 9.39626 123.734 8.77913C123.448 8.16736 123.023 7.63168 122.491 7.21582C121.851 6.72158 121.121 6.35746 120.341 6.14404C119.286 5.86168 118.196 5.73067 117.105 5.75492C116.142 5.74353 115.182 5.86295 114.251 6.1099" fill="white"/>
<path fill-rule="evenodd" clip-rule="evenodd" d="M130.478 6.144C129.685 6.35624 128.933 6.70007 128.253 7.16117C127.654 7.57538 127.159 8.122 126.806 8.75861C126.458 9.41391 126.281 10.1467 126.294 10.8885C126.247 11.5364 126.354 12.1862 126.605 12.7851C126.857 13.384 127.246 13.9153 127.741 14.336C129.056 15.2281 130.571 15.7815 132.151 15.9471L134.39 16.3226C134.985 16.3687 135.548 16.6085 135.994 17.0052C136.269 17.3022 136.42 17.6928 136.417 18.0975C136.433 18.3518 136.378 18.6054 136.257 18.8298C136.137 19.0542 135.956 19.2404 135.735 19.3673C135.034 19.677 134.267 19.8105 133.502 19.7564C132.733 19.7775 131.968 19.6284 131.263 19.3195C130.927 19.131 130.644 18.8596 130.442 18.531C130.24 18.2024 130.126 17.8275 130.11 17.4421H125.932C125.963 18.4006 126.226 19.3373 126.696 20.1728C127.126 20.8793 127.712 21.4773 128.41 21.9204C129.137 22.369 129.94 22.6813 130.779 22.842C131.698 23.0254 132.633 23.1169 133.571 23.1151C136.001 23.1151 137.796 22.6441 138.957 21.7498C139.52 21.3119 139.972 20.7473 140.275 20.102C140.579 19.4568 140.726 18.7489 140.705 18.0361C140.717 17.344 140.627 16.6539 140.438 15.9881C140.262 15.411 139.94 14.8891 139.503 14.4725C138.985 13.9971 138.377 13.6304 137.715 13.3939C136.795 13.0579 135.843 12.8155 134.875 12.6703L132.827 12.329C132.164 12.2533 131.523 12.0443 130.942 11.7146C130.778 11.5762 130.648 11.4008 130.563 11.2027C130.479 11.0045 130.443 10.7893 130.458 10.5745C130.464 10.3883 130.513 10.206 130.601 10.042C130.711 9.83937 130.871 9.66792 131.065 9.54368C131.344 9.3705 131.652 9.24801 131.973 9.18187C132.448 9.07695 132.934 9.02883 133.421 9.03851C134.211 8.97472 135.001 9.16099 135.68 9.57099C136.187 9.99457 136.532 10.5807 136.656 11.2299L140.554 10.7315C140.437 10.0616 140.233 9.40988 139.947 8.79275C139.661 8.17928 139.233 7.64319 138.698 7.22944C138.068 6.73125 137.347 6.36236 136.574 6.144C135.517 5.86127 134.426 5.73026 133.332 5.75488C132.369 5.74441 131.409 5.86381 130.478 6.10986" fill="white"/>
<path fill-rule="evenodd" clip-rule="evenodd" d="M149.921 19.3876C149.449 19.2439 149.017 18.994 148.658 18.6572C148.244 18.2208 147.95 17.6845 147.804 17.1007C147.604 16.2673 147.515 15.4111 147.538 14.5543V14.056C147.519 13.272 147.618 12.4896 147.832 11.7349C148.01 11.1679 148.327 10.6541 148.753 10.2399C149.097 9.9492 149.487 9.71842 149.907 9.55726C150.346 9.40759 150.808 9.33372 151.272 9.3388C151.741 9.33573 152.205 9.42625 152.638 9.60504C153.077 9.79642 153.459 10.1001 153.744 10.4856C154.086 10.9598 154.334 11.4951 154.474 12.0626C154.668 12.8508 154.757 13.661 154.74 14.4724C154.755 15.2643 154.661 16.0545 154.46 16.8208C154.308 17.3922 154.048 17.9296 153.696 18.4046C153.397 18.7918 153.004 19.0971 152.556 19.2921C152.125 19.48 151.66 19.5753 151.19 19.5719C150.752 19.5733 150.316 19.5159 149.893 19.4013L149.921 19.3876ZM147.456 8.4172V6.25997H143.224V28.6719H147.586V20.91C148.163 21.6907 148.945 22.2958 149.846 22.6576C150.616 22.9469 151.432 23.0972 152.255 23.1013C153.277 23.1165 154.29 22.9018 155.218 22.4733C156.084 22.0593 156.845 21.4548 157.444 20.7052C158.08 19.8918 158.557 18.9653 158.85 17.9745C159.181 16.8254 159.342 15.634 159.328 14.4383C159.328 11.744 158.768 9.62552 157.648 8.0827C156.522 6.53987 154.836 5.76845 152.569 5.76845C151.562 5.73944 150.564 5.96739 149.67 6.43081C148.775 6.89423 148.013 7.57784 147.456 8.4172Z" fill="white"/>
<path fill-rule="evenodd" clip-rule="evenodd" d="M166.045 19.2511C165.86 19.0944 165.713 18.8971 165.616 18.6746C165.519 18.4521 165.474 18.2102 165.485 17.9677C165.48 17.6383 165.531 17.3105 165.636 16.9983C165.757 16.6844 165.971 16.4151 166.25 16.2269C166.643 15.967 167.08 15.7819 167.54 15.6807C168.266 15.5142 169.007 15.4204 169.752 15.4008L171.684 15.3053V16.1518C171.705 16.7323 171.576 17.3085 171.309 17.8243C171.071 18.26 170.743 18.6396 170.346 18.9371C169.543 19.4822 168.585 19.755 167.615 19.7153C167.058 19.75 166.506 19.5855 166.059 19.2511H166.045ZM164.25 6.90167C163.629 7.31974 163.107 7.86783 162.719 8.50791C162.331 9.148 162.087 9.86478 162.004 10.6085L165.997 10.984C166.243 9.6733 167.233 9.01111 168.953 9.01111C169.647 8.99729 170.328 9.19493 170.906 9.57773C171.2 9.82553 171.429 10.142 171.572 10.4992C171.715 10.8564 171.767 11.2433 171.725 11.6257V12.4381L169.643 12.5268C168.614 12.5726 167.588 12.6774 166.571 12.8408C165.624 12.989 164.705 13.2742 163.84 13.6873C163.053 14.0619 162.376 14.6333 161.874 15.3462C161.352 16.1585 161.092 17.1119 161.13 18.0769C161.109 18.8353 161.259 19.5887 161.567 20.2819C161.825 20.8871 162.223 21.4228 162.727 21.8452C163.233 22.2521 163.816 22.5517 164.441 22.7259C165.108 22.9119 165.797 23.0061 166.489 23.0058C167.564 23.0516 168.632 22.8163 169.588 22.3231C170.404 21.8516 171.138 21.2497 171.759 20.5413V22.5893H175.855V12.2879C175.867 11.3654 175.748 10.446 175.5 9.55725C175.28 8.79425 174.885 8.09305 174.346 7.50924C173.761 6.91261 173.04 6.46743 172.244 6.21218C171.215 5.88866 170.141 5.73644 169.063 5.76161C167.367 5.6759 165.682 6.07111 164.202 6.90167" fill="white"/>
<path fill-rule="evenodd" clip-rule="evenodd" d="M179.132 22.5963H183.494V0.252563H179.132V22.5963Z" fill="white"/>
<path d="M186.826 2.47133V0.682738H187.331V0.232178H185.774V0.682738H186.286V2.47133H186.826ZM188.089 2.47133V0.983112L188.73 2.47133H188.99L189.625 0.983112V2.47133H190.137V0.232178H189.495L188.86 1.73404L188.232 0.232178H187.549V2.47133H188.089Z" fill="white"/>
</g>
<defs>
<clipPath id="clip0_113_2">
<rect width="200" height="30" fill="white"/>
</clipPath>
</defs>
</svg>
